<mxfile host="app.diagrams.net" modified="2022-02-18T08:24:37.620Z" agent="5.0 (Windows NT 10.0; Win64; x64) AppleWebKit/537.36 (KHTML, like Gecko) Chrome/98.0.4758.82 Safari/537.36" etag="WjG3CneDvdfgzZaUxHzK" version="16.6.1" type="github">
  <diagram id="YdyZfQ_2FX1VXNbwvZFN" name="Azure Purview">
    <mxGraphModel dx="925" dy="536" grid="1" gridSize="10" guides="1" tooltips="1" connect="1" arrows="1" fold="1" page="1" pageScale="1" pageWidth="850" pageHeight="1100" math="0" shadow="0">
      <root>
        <mxCell id="0" />
        <mxCell id="1" parent="0" />
        <mxCell id="PnDO7gSJsQFraJC6xpwz-1" value="Azure Purview" style="rounded=0;whiteSpace=wrap;html=1;" vertex="1" parent="1">
          <mxGeometry x="260" y="200" width="300" height="110" as="geometry" />
        </mxCell>
        <mxCell id="PnDO7gSJsQFraJC6xpwz-2" value="" style="rounded=1;whiteSpace=wrap;html=1;" vertex="1" parent="1">
          <mxGeometry x="365" y="130" width="120" height="60" as="geometry" />
        </mxCell>
      </root>
    </mxGraphModel>
  </diagram>
</mxfile>
